<?xml version="1.0" encoding="utf-8"?>
<!-- Generator: Adobe Illustrator 25.2.3, SVG Export Plug-In . SVG Version: 6.00 Build 0)  -->
<svg version="1.1" id="Layer_1" xmlns="http://www.w3.org/2000/svg" xmlns:xlink="http://www.w3.org/1999/xlink" x="0px" y="0px"
	 viewBox="0 0 512 512" style="enable-background:new 0 0 512 512;" xml:space="preserve">
<style type="text/css">
	.st0{fill-rule:evenodd;clip-rule:evenodd;fill:#203038;}
	.st1{fill-rule:evenodd;clip-rule:evenodd;fill:#FFFFFF;}
</style>
<rect class="st0" width="512" height="512"/>
<path class="st1" d="M417.9,320.1c8.1-1.1,14.6-8.5,14.6-16.6V150.1c0-6-3.7-11-9.2-12.5c-5.6-1.5-11.9,0.8-16,5.7L367.6,191
	l-45.5,6.9l-22.1,2.9v-21.3c0-8.1-6.5-13.9-14.6-12.8L94.1,191.9c-8.1,1.1-14.6,8.5-14.6,16.6v153.3c0,6,3.7,11,9.2,12.5
	c5.6,1.5,11.9-0.8,16-5.7l39.7-47.7l45.5-6.9l22.1-2.9v21.3c0,8.1,6.5,13.9,14.6,12.8L417.9,320.1z M212,296.4l-22.2,2.9l-51.8,7.9
	L94.1,360V206.7l191.4-25.2v21.3l-58.9,7.8c-8.1,1.1-14.6,8.5-14.6,16.6V296.4z M226.6,309.2v21.3l191.4-25.2V152l-43.9,52.7
	l-51.8,7.9l-22.2,2.9v69.3c0,8.1-6.5,15.6-14.6,16.6L226.6,309.2z M285.4,217.5v69.3l-58.9,7.8v-69.3L285.4,217.5z"/>
</svg>
