<svg width="92" height="76" viewBox="0 0 92 76" fill="none" xmlns="http://www.w3.org/2000/svg">
<path fill-rule="evenodd" clip-rule="evenodd" d="M67.9331 24.8451C69.0282 24.7009 69.916 23.6886 69.916 22.584V1.75602C69.916 0.93624 69.42 0.264766 68.6645 0.0618196C67.9091 -0.141125 67.0472 0.165557 66.4898 0.835611L61.1007 7.31464L54.913 8.255L51.9159 8.64957V5.75613C51.9159 4.65156 51.0281 3.87301 49.933 4.01718L23.933 7.44015C22.8379 7.58432 21.9501 8.59663 21.9501 9.7012V30.5292C21.9501 31.349 22.4461 32.0205 23.2016 32.2234C23.957 32.4263 24.8189 32.1197 25.3763 31.4496L30.7654 24.9706L36.9531 24.0302L39.9502 23.6356V26.5291C39.9502 27.6337 40.838 28.4122 41.9331 28.268L67.9331 24.8451ZM39.9502 21.6356L36.933 22.0329L29.8931 23.1027L23.933 30.2681V9.44015L49.933 6.01718V8.91062L41.9331 9.96384C40.838 10.108 39.9502 11.1203 39.9502 12.2249V21.6356ZM41.9331 23.3746V26.268L67.9331 22.8451V2.01707L61.973 9.18247L54.9331 10.2524L51.9159 10.6496V20.0603C51.9159 21.1649 51.0281 22.1772 49.933 22.3214L41.9331 23.3746ZM49.933 10.9106V20.3214L41.9331 21.3746V11.9638L49.933 10.9106ZM74.407 39.2997C73.8588 39.367 73.469 39.866 73.5363 40.4141C73.6036 40.9623 74.1025 41.3521 74.6507 41.2848L85.5769 39.9432C86.1244 39.886 86.6172 40.1118 87.0396 40.6132C87.4778 41.1334 87.79 41.9077 87.8718 42.7398C87.9536 43.5719 87.7954 44.3544 87.428 44.918C87.0841 45.4455 86.5096 45.8605 85.5403 45.9338C85.5248 45.935 85.5093 45.9365 85.4939 45.9384L74.5598 47.2809C74.0116 47.3483 73.6218 47.8472 73.6891 48.3954C73.7564 48.9435 74.2554 49.3333 74.8035 49.266L85.7155 47.9262C87.2688 47.8021 88.4099 47.074 89.1034 46.0102C89.777 44.9769 89.9769 43.7108 89.8622 42.5441C89.7475 41.3772 89.3085 40.2024 88.5693 39.3247C87.8157 38.4301 86.707 37.809 85.3552 37.9555L85.341 37.9572L74.407 39.2997ZM51.9201 44.8053C51.4011 44.9942 51.1335 45.5681 51.3224 46.0871C51.5113 46.606 52.0852 46.8736 52.6041 46.6847L57.9331 44.7452V52.1383L49.9256 53.1214C49.3774 53.1888 48.9876 53.6877 49.0549 54.2359C49.1222 54.784 49.6212 55.1738 50.1693 55.1065L57.9331 54.1533V68.0171C57.9331 68.5694 58.3808 69.0171 58.9331 69.0171C59.4853 69.0171 59.9331 68.5694 59.9331 68.0171V53.9077L68.0352 52.9129C68.5833 52.8456 68.9732 52.3466 68.9058 51.7985C68.8385 51.2503 68.3396 50.8605 67.7914 50.9278L59.9331 51.8927V44.0171L64.8202 42.2385C65.3391 42.0496 65.6067 41.4757 65.4178 40.9568C65.2289 40.4378 64.6551 40.1702 64.1361 40.3591L51.9201 44.8053ZM76.7278 43.1451C76.1797 43.2124 75.7899 43.7114 75.8572 44.2595C75.9245 44.8077 76.4234 45.1975 76.9716 45.1302L85.1653 44.1242C85.7135 44.0569 86.1033 43.5579 86.036 43.0097C85.9687 42.4616 85.4697 42.0718 84.9216 42.1391L76.7278 43.1451ZM44.1511 43.3209C44.3949 43.5723 44.4895 43.9329 44.4003 44.2716L42.2627 52.3947L44.2242 52.1539C44.5623 52.1124 44.8982 52.2458 45.1157 52.5079C45.3332 52.7701 45.4023 53.1249 45.299 53.4495L44.3862 56.3201C44.2188 56.8464 43.6565 57.1374 43.1302 56.97C42.6039 56.8027 42.3129 56.2403 42.4802 55.714L42.9207 54.329L40.9331 54.573V59.5519L43.7046 59.2116C44.2528 59.1443 44.7517 59.5341 44.819 60.0823C44.8863 60.6305 44.4965 61.1294 43.9483 61.1967L40.9331 61.567V67.509C41.8757 68.1734 43.1555 68.4529 45.2369 68.0366C45.7785 67.9283 46.3053 68.2795 46.4136 68.8211C46.5219 69.3626 46.1707 69.8894 45.6291 69.9977C42.9798 70.5276 41.0033 70.1561 39.4495 68.8926C39.3259 68.8242 39.2183 68.7304 39.1338 68.6183C38.389 67.9274 37.7808 67.0454 37.2386 66.0435C37.176 66.3657 37.1073 66.675 37.0323 66.9716C36.4545 69.2583 35.4764 70.9085 33.9672 71.8624C33.5003 72.1575 32.8827 72.0182 32.5876 71.5514C32.2925 71.0845 32.4318 70.4669 32.8987 70.1718C33.8131 69.5939 34.5848 68.494 35.0933 66.4817C35.6031 64.464 35.8166 61.6471 35.7024 57.8188C35.686 57.2668 36.1201 56.8059 36.6722 56.7894C37.2242 56.773 37.6851 57.2071 37.7016 57.7592C37.7518 59.4442 37.7413 60.967 37.6667 62.3373C37.7443 62.421 37.8088 62.5196 37.8554 62.631C38.2279 63.5206 38.5787 64.2987 38.9331 64.9695V54.8186L35.9257 55.1878C35.3775 55.2551 34.8786 54.8653 34.8113 54.3172C34.744 53.769 35.1338 53.2701 35.6819 53.2027L38.2147 52.8918L37.3954 50.6409C37.2065 50.1219 37.4741 49.5481 37.9931 49.3592C38.5121 49.1703 39.0859 49.4379 39.2748 49.9569L40.181 52.4465L42.0448 45.3638L37.1581 46.4915C36.62 46.6157 36.0831 46.2801 35.9589 45.742C35.8347 45.2039 36.1703 44.6669 36.7084 44.5428L43.2084 43.0428C43.5497 42.964 43.9073 43.0695 44.1511 43.3209ZM0.00755639 60.2359C-0.0597502 59.6877 0.330065 59.1888 0.878233 59.1214L8.93305 58.1324V50.7279L3.55678 52.6847C3.03781 52.8736 2.46396 52.606 2.27507 52.0871C2.08618 51.5681 2.35377 50.9942 2.87274 50.8053L15.0887 46.3591C15.6077 46.1702 16.1816 46.4378 16.3705 46.9568C16.5594 47.4757 16.2918 48.0496 15.7728 48.2385L10.9329 50L10.9331 50.0171V57.8869L18.7441 56.9278C19.2922 56.8605 19.7912 57.2503 19.8585 57.7985C19.9258 58.3466 19.536 58.8456 18.9878 58.9129L10.9331 59.9019V74.0171C10.9331 74.5694 10.4853 75.0171 9.93305 75.0171C9.38077 75.0171 8.93305 74.5694 8.93305 74.0171V60.1475L1.12197 61.1065C0.573804 61.1738 0.074863 60.784 0.00755639 60.2359ZM71.0539 54.1146C70.9866 53.5665 71.3765 53.0675 71.9246 53.0002L84.9327 51.403C84.933 50.956 84.9331 50.4943 84.9331 50.0172C84.9331 49.465 85.3808 49.0172 85.9331 49.0172C86.4853 49.0172 86.9331 49.465 86.9331 50.0172V50.0401L86.933 50.7869L86.9329 51.1574L90.7749 50.6857C91.3231 50.6184 91.822 51.0082 91.8893 51.5564C91.9566 52.1046 91.5668 52.6035 91.0186 52.6708L86.929 53.1729C86.9218 54.8954 86.9017 56.3895 86.8462 57.6775C86.7597 59.6829 86.585 61.2782 86.1995 62.5045C85.8025 63.7678 85.156 64.7179 84.0984 65.3054C83.0958 65.8624 81.8526 66.0172 80.4331 66.0172C79.8808 66.0172 79.4331 65.5695 79.4331 65.0172C79.4331 64.465 79.8808 64.0172 80.4331 64.0172C81.7635 64.0172 82.5828 63.8595 83.1271 63.5571C83.6163 63.2853 84.0011 62.8291 84.2916 61.9049C84.5937 60.9437 84.7627 59.5703 84.848 57.5913C84.8995 56.3989 84.9198 55.0191 84.9278 53.4187L72.1684 54.9853C71.6202 55.0526 71.1213 54.6628 71.0539 54.1146ZM26.4331 45.0171V47.5874L32.224 45.4797C32.743 45.2908 33.3168 45.5584 33.5057 46.0774C33.6946 46.5963 33.427 47.1702 32.908 47.3591L26.4331 49.7158V50.0171C26.4331 50.7409 26.6907 51.1926 27.0577 51.4863C27.4549 51.8039 28.0856 52.0171 28.9331 52.0171C29.7847 52.0171 30.5792 51.8012 31.1283 51.4351C31.6479 51.0887 31.9331 50.6292 31.9331 50.0171V49.0171C31.9331 48.4648 32.3808 48.0171 32.9331 48.0171C33.4853 48.0171 33.9331 48.4648 33.9331 49.0171V50.0171C33.9331 51.405 33.2182 52.4455 32.2378 53.0992C31.2869 53.7331 30.0814 54.0171 28.9331 54.0171C27.7805 54.0171 26.6612 53.7303 25.8084 53.048C24.9254 52.3417 24.4331 51.2934 24.4331 50.0171V45.0171C24.4331 44.4648 24.8808 44.0171 25.4331 44.0171C25.9853 44.0171 26.4331 44.4648 26.4331 45.0171ZM26.2652 56.9947L26.6011 55.9606C26.7718 55.4354 26.4844 54.8712 25.9591 54.7005C25.4339 54.5299 24.8697 54.8173 24.699 55.3426L23.3627 59.4555C23.192 59.9807 23.4795 60.5449 24.0047 60.7155C24.53 60.8862 25.0941 60.5988 25.2648 60.0735L25.6011 59.0383C25.7052 59.0599 25.8144 59.065 25.9257 59.0514L28.3735 58.7508C28.2885 59.7706 28.0874 60.8035 27.8096 61.8187L24.6819 62.2027C24.1338 62.2701 23.744 62.769 23.8113 63.3172C23.8786 63.8653 24.3775 64.2551 24.9257 64.1878L27.1251 63.9178C26.7202 64.9956 26.2549 66.0253 25.7822 66.9654C25.1147 68.293 24.4466 69.4142 23.9459 70.2025C23.6958 70.5962 23.4882 70.9058 23.3443 71.1153C23.2723 71.2201 23.2164 71.2997 23.179 71.3523C23.1604 71.3786 23.1464 71.3981 23.1374 71.4106L23.1277 71.424L23.1255 71.427C22.7997 71.8728 22.8968 72.4982 23.3425 72.8242C23.7883 73.1503 24.414 73.0532 24.74 72.6074L23.9329 72.0171C24.74 72.6074 24.7406 72.6066 24.7408 72.6064L24.742 72.6047L24.746 72.5992L24.7598 72.5801L24.7847 72.5454L24.8099 72.51C24.8529 72.4494 24.9148 72.3613 24.9929 72.2476C25.149 72.0204 25.3699 71.6907 25.6341 71.2748C26.1619 70.4438 26.8652 69.2638 27.5691 67.8639C28.019 66.969 28.4754 65.9724 28.887 64.9106L30.4626 69.3609C30.6469 69.8815 31.2183 70.1541 31.739 69.9698C32.2596 69.7855 32.5322 69.214 32.3479 68.6934L30.51 63.5022L33.4679 63.139C34.0161 63.0717 34.4059 62.5727 34.3386 62.0246C34.2713 61.4764 33.7724 61.0866 33.2242 61.1539L29.9392 61.5572C30.1746 60.5529 30.3378 59.5268 30.3954 58.5025L33.3567 58.139C33.9049 58.0716 34.2947 57.5727 34.2274 57.0245C34.1601 56.4764 33.6611 56.0865 33.113 56.1539L26.2652 56.9947ZM23.9329 72.0171C23.1257 71.4267 23.1256 71.4269 23.1255 71.427L23.9329 72.0171ZM78.6059 60.8326C78.7948 61.3515 79.3687 61.6191 79.8876 61.4302C80.4066 61.2413 80.6742 60.6675 80.4853 60.1485L79.381 57.1144C79.1921 56.5955 78.6183 56.3279 78.0993 56.5168C77.5803 56.7057 77.3127 57.2795 77.5016 57.7985L78.6059 60.8326Z" fill="white"/>
</svg>
